<?xml version="1.0" encoding="UTF-8"?>
<svg id="Layer_1" xmlns="http://www.w3.org/2000/svg" version="1.1" xmlns:xlink="http://www.w3.org/1999/xlink" viewBox="0 0 1920 1080">
  <!-- Generator: Adobe Illustrator 30.3.0, SVG Export Plug-In . SVG Version: 2.1.3 Build 182)  -->
  <defs>
    <style>
      .st0 {
        fill: url(#linear-gradient1);
        opacity: .5;
      }

      .st1 {
        fill: url(#linear-gradient);
      }

      .st2 {
        fill: url(#radial-gradient);
        isolation: isolate;
      }
    </style>
    <linearGradient id="linear-gradient" x1="960" y1="-3.3" x2="960" y2="1061.9" gradientTransform="translate(0 1080) scale(1 -1)" gradientUnits="userSpaceOnUse">
      <stop offset="0" stop-color="#004099"/>
      <stop offset="0" stop-color="#003176"/>
      <stop offset=".3" stop-color="#002454"/>
      <stop offset=".5" stop-color="#001a3b"/>
      <stop offset=".6" stop-color="#001228"/>
      <stop offset=".8" stop-color="#000e1d"/>
      <stop offset="1" stop-color="#000d1a"/>
    </linearGradient>
    <radialGradient id="radial-gradient" cx="982.6" cy="1174.2" fx="982.6" fy="1174.2" r="1366.2" gradientTransform="translate(0 730.4) scale(1 .4)" gradientUnits="userSpaceOnUse">
      <stop offset="0" stop-color="#007aff"/>
      <stop offset="0" stop-color="#006de6"/>
      <stop offset=".3" stop-color="#0051ad"/>
      <stop offset=".5" stop-color="#003b81"/>
      <stop offset=".7" stop-color="#002c61"/>
      <stop offset=".9" stop-color="#00224e"/>
      <stop offset="1" stop-color="#001f47"/>
    </radialGradient>
    <linearGradient id="linear-gradient1" x1="960" y1="1080" x2="960" y2="658.1" gradientUnits="userSpaceOnUse">
      <stop offset="0" stop-color="#004099"/>
      <stop offset="0" stop-color="#89addd"/>
      <stop offset=".2" stop-color="#7295c4"/>
      <stop offset=".7" stop-color="#20406b"/>
      <stop offset="1" stop-color="#001f48"/>
    </linearGradient>
  </defs>
  <rect class="st1" width="1920" height="1080"/>
  <path class="st2" d="M1920,824.4v255.6H0v-227.3c211.2-115.1,575-191.1,988.4-191.1s715.3,63.7,931.6,162.8Z"/>
  <path class="st0" d="M0,1078.1h1919.8v1.9H0v-1.9ZM1863.2,658.1H67.3L0,673.4v1.9l67.4-15.3h1795.5l56.9,12.9v-1.9l-56.7-12.9ZM9,671.4h1910.9v1.9H9v-1.9ZM0,686.6h1919.8v1.9H0v-1.9ZM0,704h1919.8v1.9H0v-1.9ZM0,724.3h1919.8v1.9H0v-1.9ZM0,748.1h1919.8v1.9H0v-1.9ZM0,776.5h1919.8v1.9H0v-1.9ZM0,811h1919.8v1.9H0v-1.9ZM0,853.8h1919.8v1.9H0v-1.9ZM0,908.2h1919.8v1.9H0v-1.9ZM0,979.8h1919.8v1.9H0v-1.9ZM0,706.7l179.8-46.7-.5-1.9L0,704.8v1.9ZM0,748.5l292.1-88.6-.5-1.8L0,746.6v1.9ZM0,807.1l404.4-147.2-.6-1.7L0,805.1v2ZM0,895l516.7-235.1-.8-1.7L0,892.9v2.1ZM0,1041.4l629-381.5-.9-1.7L0,1039.2v2.2ZM279.9,1079.7l-1.2-1.4,461.6-420,1.2,1.4-461.6,420ZM623.1,1079.5l-1.5-.9,230.8-420,1.6.9-230.9,420ZM964.5,659h1.8v420h-1.8v-420ZM1307.6,1079.5l-230.8-420,1.5-.9,230.9,420-1.6.9ZM1650.9,1079.7l-461.6-420,1.1-1.4,461.6,420-1.1,1.4ZM1919.9,1032.7l-617.4-374.5-.9,1.7,618.3,375v-2.2ZM1919.9,888l-505.3-229.8-.7,1.7,506,230.2v-2.1ZM1919.9,801.2l-393.1-143-.7,1.7,393.7,143.3v-2ZM1919.9,743.3l-280.9-85.2-.5,1.8,281.4,85.4v-2ZM1919.9,702l-168.8-43.9-.4,1.9,169.1,43.9v-1.9Z"/>
</svg>